{
	"asset":{
		"generator":"Khronos glTF Blender I/O v4.1.63",
		"version":"2.0"
	},
	"scene":0,
	"scenes":[
		{
			"name":"Scene",
			"nodes":[
				0
			]
		}
	],
	"nodes":[
		{
			"mesh":0,
			"name":"Whole brain",
			"scale":[
				0.009999990463256836,
				0.009999990463256836,
				0.009999990463256836
			]
		}
	],
	"meshes":[
		{
			"name":"Whole brain.001",
			"primitives":[
				{
					"attributes":{
						"POSITION":0,
						"NORMAL":1
					},
					"indices":2
				}
			]
		}
	],
	"accessors":[
		{
			"bufferView":0,
			"componentType":5126,
			"count":22201,
			"max":[
				73.62958526611328,
				94.175537109375,
				102.34752655029297
			],
			"min":[
				-73.12782287597656,
				-62.64552307128906,
				-94.90843200683594
			],
			"type":"VEC3"
		},
		{
			"bufferView":1,
			"componentType":5126,
			"count":22201,
			"type":"VEC3"
		},
		{
			"bufferView":2,
			"componentType":5123,
			"count":133287,
			"type":"SCALAR"
		}
	],
	"bufferViews":[
		{
			"buffer":0,
			"byteLength":266412,
			"byteOffset":0,
			"target":34962
		},
		{
			"buffer":0,
			"byteLength":266412,
			"byteOffset":266412,
			"target":34962
		},
		{
			"buffer":0,
			"byteLength":266574,
			"byteOffset":532824,
			"target":34963
		}
	],
	"buffers":[
		{
			"byteLength":799400,
			"uri":"scene.bin"
		}
	]
}
